# xmcd CD database file
#
# Track frame offsets:
#	150
#	22040
#	41127
#	62965
#
# Disc length: 1091 seconds
#
# Revision: 2
# Processed by: cddbd v1.5.1PL0 Copyright (c) Steve Scherf et al.
# Submitted via: CDex 1.51
#
DISCID=35044104
DTITLE=サラブレンド - 優しい光
DYEAR=2005
DGENRE=JPop
TTITLE0=優しい光
TTITLE1=読ミ人知ラズ
TTITLE2=優しい光 (Instrumental)
TTITLE3=読ミ人知ラズ (Instrumental)
EXTD=YEAR: 2005
EXTT0=
EXTT1=
EXTT2=
EXTT3=
PLAYORDER=
